<?xml version="1.0" encoding="utf-8"?>
<!-- Generator: Adobe Illustrator 16.0.0, SVG Export Plug-In . SVG Version: 6.00 Build 0)  -->
<!DOCTYPE svg PUBLIC "-//W3C//DTD SVG 1.1//EN" "http://www.w3.org/Graphics/SVG/1.1/DTD/svg11.dtd" [
	<!ENTITY ns_extend "http://ns.adobe.com/Extensibility/1.0/">
	<!ENTITY ns_ai "http://ns.adobe.com/AdobeIllustrator/10.0/">
	<!ENTITY ns_graphs "http://ns.adobe.com/Graphs/1.0/">
	<!ENTITY ns_vars "http://ns.adobe.com/Variables/1.0/">
	<!ENTITY ns_imrep "http://ns.adobe.com/ImageReplacement/1.0/">
	<!ENTITY ns_sfw "http://ns.adobe.com/SaveForWeb/1.0/">
	<!ENTITY ns_custom "http://ns.adobe.com/GenericCustomNamespace/1.0/">
	<!ENTITY ns_adobe_xpath "http://ns.adobe.com/XPath/1.0/">
]>
<svg version="1.1" id="Capa_1" xmlns:x="&ns_extend;" xmlns:i="&ns_ai;" xmlns:graph="&ns_graphs;"
	 xmlns="http://www.w3.org/2000/svg" xmlns:xlink="http://www.w3.org/1999/xlink" x="0px" y="0px" width="540.938px" height="530px"
	 viewBox="0 0 540.938 530" enable-background="new 0 0 540.938 530" xml:space="preserve">
<metadata>
	<sfw  xmlns="&ns_sfw;">
		<slices></slices>
		<sliceSourceBounds  bottomLeftOrigin="true" width="439.872" height="428.106" x="59.506" y="-478.124"></sliceSourceBounds>
	</sfw>
</metadata>
<text transform="matrix(1 0 0 1 59.5059 193.4233)" fill="#2D2D2B" font-family="'MuseoSans-300'" font-size="23.4486">ABCDEFGHIJKLMNÑOPQRSTUVWXYZ</text>
<text transform="matrix(1 0 0 1 59.5059 79.9141)" fill="#2D2D2B" font-family="'MuseoSans-300'" font-size="35.1729">MUSEO SANS</text>
<text transform="matrix(1 0 0 1 59.5059 156.6714)" fill="#2D2D2B" font-family="'MuseoSans-300'" font-size="16.749">MUSEO SANS 300</text>
<text transform="matrix(1 0 0 1 59.5059 283.1826)" fill="#2D2D2B" font-family="'MuseoSans-500'" font-size="16.749">MUSEO SANS 500</text>
<text transform="matrix(1 0 0 1 59.5059 412)" fill="#2D2D2B" font-family="'MuseoSans-900'" font-size="16.749">MUSEO SANS 700</text>
<text transform="matrix(1 0 0 1 59.5068 227.5132)" fill="#2D2D2B" font-family="'MuseoSans-300'" font-size="23.4486">abcdefghijklmnñopqrstuvwxyz</text>
<text transform="matrix(1 0 0 1 59.5068 317.998)" fill="#2D2D2B" font-family="'MuseoSans-500'" font-size="23.4486">ABCDEFGHIJKLMNÑOPQRSTUVWXYZ</text>
<text transform="matrix(1 0 0 1 59.5059 349.8984)" fill="#2D2D2B" font-family="'MuseoSans-500'" font-size="23.4486">abcdefghijklmnñopqrstuvwxyz</text>
<text transform="matrix(1 0 0 1 59.6006 444.4238)"><tspan x="0" y="0" fill="#2D2D2B" font-family="'MuseoSans-900'" font-size="23.4486">ABCDEFGHIJKLMNÑOPQRSTUVW</tspan><tspan x="390.953" y="0" fill="#2D2D2B" font-family="'MuseoSans-900'" font-size="23.4486">X</tspan><tspan x="407.296" y="0" fill="#2D2D2B" font-family="'MuseoSans-900'" font-size="23.4486">YZ</tspan></text>
<text transform="matrix(1 0 0 1 59.5068 473.1992)"><tspan x="0" y="0" fill="#2D2D2B" font-family="'MuseoSans-900'" font-size="23.4486">abcdefghij</tspan><tspan x="121.907" y="0" fill="#2D2D2B" font-family="'MuseoSans-900'" font-size="23.4486">k</tspan><tspan x="135.906" y="0" fill="#2D2D2B" font-family="'MuseoSans-900'" font-size="23.4486">lmnñopqrstuvwxyz</tspan></text>
<line fill="none" stroke="#DADADA" stroke-miterlimit="10" x1="59.518" y1="108.86" x2="499.378" y2="108.86"/>
</svg>
