<?xml version="1.0" encoding="utf-8"?>
<!-- Generator: Adobe Illustrator 16.0.0, SVG Export Plug-In . SVG Version: 6.00 Build 0)  -->
<!DOCTYPE svg PUBLIC "-//W3C//DTD SVG 1.1//EN" "http://www.w3.org/Graphics/SVG/1.1/DTD/svg11.dtd" [
	<!ENTITY ns_extend "http://ns.adobe.com/Extensibility/1.0/">
	<!ENTITY ns_ai "http://ns.adobe.com/AdobeIllustrator/10.0/">
	<!ENTITY ns_graphs "http://ns.adobe.com/Graphs/1.0/">
	<!ENTITY ns_vars "http://ns.adobe.com/Variables/1.0/">
	<!ENTITY ns_imrep "http://ns.adobe.com/ImageReplacement/1.0/">
	<!ENTITY ns_sfw "http://ns.adobe.com/SaveForWeb/1.0/">
	<!ENTITY ns_custom "http://ns.adobe.com/GenericCustomNamespace/1.0/">
	<!ENTITY ns_adobe_xpath "http://ns.adobe.com/XPath/1.0/">
]>
<svg version="1.1" id="Capa_1" xmlns:x="&ns_extend;" xmlns:i="&ns_ai;" xmlns:graph="&ns_graphs;"
	 xmlns="http://www.w3.org/2000/svg" xmlns:xlink="http://www.w3.org/1999/xlink" x="0px" y="0px" width="35px" height="35px"
	 viewBox="0 0 35 35" enable-background="new 0 0 35 35" xml:space="preserve">
<metadata>
	<sfw  xmlns="&ns_sfw;">
		<slices></slices>
		<sliceSourceBounds  y="-31.2" x="1" bottomLeftOrigin="true" height="29.4" width="32"></sliceSourceBounds>
	</sfw>
</metadata>
<g>
	<path fill="#ED574A" d="M27.3,21.2c-0.2-0.4-0.6-0.8-1-1l2.7-4.3c0.5-0.7,0.5-1.8,0.2-2.4c-0.4-0.7-6.4-11.6-6.4-11.6
		s-6.1,9.8-6.2,9.8l-0.3-0.5c-0.4-0.8-1.3-1.3-2.1-1.3c-0.1,0-13.3,0-13.3,0l5.5,9.9C7.3,21,8,21.1,8.8,21.1c0.7,0,1.7,0,3.9,0
		l4.9,8.7c0.7,1.3,1.4,1.4,2.2,1.4c0.1,0,13.2,0,13.2,0L27.3,21.2z M24.2,21L23,23c-0.3-0.6-0.7-1-1.1-2H24.2z M17.8,13.7
		c-0.4-0.7-0.5-0.9,0-1.6l4.9-7.9c1.7,3.2,5.1,9.3,5.4,9.8c0.1,0.3,0.1,0.8-0.1,1.2l0,0l0,0.1L25,20c-0.3,0-2.8,0-3.7,0
		C21.3,20,17.8,13.8,17.8,13.7z M7.6,19.2L7.6,19.2L7.6,19.2l-4.5-8.1l11.1,0c0.3,0,0.8,0.3,1,0.7c0,0,3.8,6.8,4.6,8.1
		c-2.7,0-10.1,0-11,0C8.3,19.9,8,19.9,7.6,19.2z M19.8,30c-0.6,0-0.8,0-1.2-0.7l0,0l-4.5-8.1l6.4,0c1.3,2.4,2.5,4.5,2.5,4.5l2.7-4.4
		c0.2,0.1,0.5,0.3,0.6,0.6l4.6,8.1C28.4,29.9,19.9,30,19.8,30z"/>
	<g>
		<path fill="#56BBB9" d="M15.2,11.7c0,0,1.8,3.2,3.1,5.6l2,0.8c-1-1.8-2.5-4.5-2.6-4.6c-0.4-0.7-0.5-0.8,0-1.5l4.9-7.9
			c1.7,3.1,5.1,9.3,5.4,9.8c0.1,0.3,0.1,0.8-0.1,1.2l0,0l0,0L25,19.9c-0.1,0-0.4,0-0.8,0l3.1,1.3c-0.2-0.4-0.6-0.8-1-1l2.7-4.3
			c0.5-0.7,0.5-1.8,0.2-2.4c-0.4-0.7-6.4-11.6-6.4-11.6s-6.1,9.8-6.2,9.8l-0.3-0.5c-0.4-0.8-1.3-1.3-2.1-1.3c-0.1,0-13.3,0-13.3,0
			l2.9,1.2l10.4,0C14.5,11.1,15,11.4,15.2,11.7z"/>
	</g>
	<path fill="#EDA53A" d="M27.3,21.2c-0.2-0.4-0.6-0.8-1-1l2.7-4.3c0.5-0.7,0.5-1.8,0.2-2.4c-0.1-0.2-0.9-1.6-1.8-3.3l-0.9,1
		c0.8,1.5,1.4,2.6,1.6,2.8c0.1,0.3,0.1,0.8-0.1,1.2l0,0l0,0L25,19.9c-0.3,0-2.8,0-3.7,0c0,0-0.4-0.6-0.9-1.5l-0.9,1.1
		c0.1,0.2,0.2,0.3,0.3,0.5c-0.2,0-0.4,0-0.6,0l-1,1.2l2.4,0c1.3,2.4,2.5,4.5,2.5,4.5l2.7-4.4c0.2,0.1,0.5,0.3,0.6,0.6l4.6,8.1
		c-2.5,0-11,0-11.1,0c-0.6,0-0.8,0-1.2-0.7l0,0L15.7,24l-0.9,1l2.7,4.8c0.7,1.3,1.4,1.4,2.2,1.4c0.1,0,13.2,0,13.2,0L27.3,21.2z
		 M23,23.2c-0.3-0.6-0.7-1.3-1.1-2h2.4L23,23.2z"/>
</g>
</svg>
