<?xml version="1.0" encoding="utf-8"?>
<!-- Generator: Adobe Illustrator 16.0.0, SVG Export Plug-In . SVG Version: 6.00 Build 0)  -->
<!DOCTYPE svg PUBLIC "-//W3C//DTD SVG 1.1//EN" "http://www.w3.org/Graphics/SVG/1.1/DTD/svg11.dtd" [
	<!ENTITY ns_extend "http://ns.adobe.com/Extensibility/1.0/">
	<!ENTITY ns_ai "http://ns.adobe.com/AdobeIllustrator/10.0/">
	<!ENTITY ns_graphs "http://ns.adobe.com/Graphs/1.0/">
	<!ENTITY ns_vars "http://ns.adobe.com/Variables/1.0/">
	<!ENTITY ns_imrep "http://ns.adobe.com/ImageReplacement/1.0/">
	<!ENTITY ns_sfw "http://ns.adobe.com/SaveForWeb/1.0/">
	<!ENTITY ns_custom "http://ns.adobe.com/GenericCustomNamespace/1.0/">
	<!ENTITY ns_adobe_xpath "http://ns.adobe.com/XPath/1.0/">
]>
<svg version="1.1" id="Capa_1" xmlns:x="&ns_extend;" xmlns:i="&ns_ai;" xmlns:graph="&ns_graphs;"
	 xmlns="http://www.w3.org/2000/svg" xmlns:xlink="http://www.w3.org/1999/xlink" x="0px" y="0px" width="500px" height="329.747px"
	 viewBox="0 0 500 329.747" enable-background="new 0 0 500 329.747" xml:space="preserve">
<metadata>
	<sfw  xmlns="&ns_sfw;">
		<slices></slices>
		<sliceSourceBounds  height="170.618" width="445.464" bottomLeftOrigin="true" y="-335.638" x="27.381"></sliceSourceBounds>
	</sfw>
</metadata>
<g>
	<g>
		<path fill="#272D39" d="M329.326,102.16c-21.066,0-37.85,17.854-37.85,38.92c0,21.068,16.783,38.919,37.85,38.919
			c22.139,0,39.277-17.851,39.277-38.919C368.604,120.014,351.465,102.16,329.326,102.16L329.326,102.16z M368.604,193.212
			c-11.07,8.928-26.066,12.855-38.207,12.855h38.207V193.212z M439.303,80.02h33.209v126.048h-33.209V80.02z M404.311,80.02h-51.775
			c23.926,7.857,39.992,32.139,41.777,53.92c0,7.141,0,72.128,0,72.128h33.207v-78.198
			C425.379,107.873,419.309,92.877,404.311,80.02L404.311,80.02z M235.414,138.223c1.785-17.852,5.99-46.154,23.496-58.203h47.633
			c-22.3,10.438-38.162,26.488-41.135,66.061c-2.754,36.655-34.004,59.987-63.575,59.987c-22.43,0-42.476-8.928-55.331-23.926
			c-12.141,14.998-31.064,23.926-51.061,23.926c-34.994,0-67.131-29.994-67.131-62.13c0,0,0-8.928,0-63.918h29.994v63.918
			c2.143,19.281,17.854,33.206,37.137,33.206c19.996,0,36.064-17.14,36.064-37.134V80.02H161.5v63.918
			c1.785,19.281,16.068,33.206,38.562,33.206C220.773,177.144,233.271,161.078,235.414,138.223z"/>
		<g>
			<path fill="#272D39" d="M81.918,243.567H74.26l-2.016,6.494h-2.938l7.314-22.59h2.994l7.313,22.59h-2.966L81.918,243.567z
				 M78.089,230.575c0,0-0.46,2.049-0.806,3.199l-2.275,7.168h6.162l-2.246-7.168c-0.346-1.15-0.777-3.199-0.777-3.199H78.089z"/>
			<path fill="#272D39" d="M89.927,227.472h6.22c2.131,0,3.023,0.191,3.801,0.512c2.072,0.863,3.426,3.137,3.426,6.111
				c0,2.881-1.439,5.312-3.656,6.111v0.064c0,0,0.23,0.289,0.604,1.023l4.319,8.768h-3.225l-4.291-8.99h-4.348v8.99h-2.851V227.472z
				 M96.865,238.319c2.218,0,3.6-1.568,3.6-4.096c0-1.664-0.576-2.848-1.613-3.488c-0.546-0.32-1.208-0.512-2.792-0.512h-3.282
				v8.096H96.865z"/>
			<path fill="#272D39" d="M117.457,227.087c5.902,0,10.452,5.023,10.452,11.553c0,2.848-0.921,5.471-2.39,7.455l2.418,2.559
				l-1.67,1.984l-2.361-2.623c-1.756,1.568-3.973,2.432-6.449,2.432c-5.873,0-10.424-5.217-10.424-11.807
				C107.033,232.11,111.584,227.087,117.457,227.087z M117.457,247.534c1.525,0,3.225-0.607,4.405-1.664l-2.39-2.592l1.67-1.984
				l2.332,2.625c0.922-1.408,1.498-3.297,1.498-5.279c0-4.992-3.283-8.672-7.516-8.672c-4.203,0-7.486,3.68-7.486,8.672
				C109.971,243.694,113.254,247.534,117.457,247.534z"/>
			<path fill="#272D39" d="M132.09,227.472h2.85v14.592c0,3.455,2.016,5.471,5.126,5.471c3.138,0,5.183-2.016,5.183-5.535v-14.527
				h2.85v14.592c0,5.023-3.253,8.383-8.004,8.383c-4.75,0-8.004-3.359-8.004-8.383V227.472z"/>
			<path fill="#272D39" d="M153.344,227.472h2.851v22.59h-2.851V227.472z"/>
			<path fill="#272D39" d="M166.072,230.224h-6.969v-2.752h16.787v2.752h-6.969v19.838h-2.85V230.224z"/>
			<path fill="#272D39" d="M178.803,227.472h11.805v2.752h-8.955v7.072h7.285v2.75h-7.285v7.264h9.445v2.752h-12.295V227.472z"/>
			<path fill="#272D39" d="M204.115,227.087c4.896,0,7.4,2.977,7.4,2.977l-1.41,2.367c0,0-2.361-2.463-5.875-2.463
				c-4.549,0-7.515,3.84-7.515,8.639c0,4.832,3.023,8.928,7.544,8.928c3.83,0,6.277-2.943,6.277-2.943l1.525,2.271
				c0,0-2.793,3.584-7.889,3.584c-6.105,0-10.395-5.184-10.395-11.807C193.779,232.079,198.213,227.087,204.115,227.087z"/>
			<path fill="#272D39" d="M220.301,230.224h-6.967v-2.752h16.787v2.752h-6.969v19.838h-2.852V230.224z"/>
			<path fill="#272D39" d="M232.744,227.472h2.851v14.592c0,3.455,2.016,5.471,5.126,5.471c3.138,0,5.182-2.016,5.182-5.535v-14.527
				h2.852v14.592c0,5.023-3.254,8.383-8.005,8.383s-8.005-3.359-8.005-8.383V227.472z"/>
			<path fill="#272D39" d="M253.998,227.472h6.219c2.132,0,3.024,0.191,3.801,0.512c2.074,0.863,3.428,3.137,3.428,6.111
				c0,2.881-1.439,5.312-3.657,6.111v0.064c0,0,0.229,0.289,0.604,1.023l4.319,8.768h-3.225l-4.29-8.99h-4.348v8.99h-2.852V227.472z
				 M260.938,238.319c2.217,0,3.6-1.568,3.6-4.096c0-1.664-0.576-2.848-1.613-3.488c-0.547-0.32-1.209-0.512-2.793-0.512h-3.281
				v8.096H260.938z"/>
			<path fill="#272D39" d="M282.537,243.567h-7.66l-2.015,6.494h-2.937l7.312-22.59h2.995l7.313,22.59h-2.966L282.537,243.567z
				 M278.707,230.575c0,0-0.461,2.049-0.807,3.199l-2.273,7.168h6.161l-2.246-7.168c-0.345-1.15-0.777-3.199-0.777-3.199H278.707z"
				/>
			<path fill="#272D39" d="M300.307,237.935v-0.064c0,0-2.678-1.023-2.678-4.959c0-3.744,2.649-5.824,6.249-5.824
				c1.122,0,2.476,0.354,2.476,0.354l-0.719,2.527c0,0-0.836-0.191-1.527-0.191c-2.015,0-3.599,1.246-3.599,3.455
				c0,1.408,0.604,3.551,3.743,3.551h3.771v-3.07h2.793v3.07h2.707v2.752h-2.707v3.008c0,5.023-2.678,7.904-7.025,7.904
				c-4.232,0-7.055-2.912-7.055-6.721C296.736,241.231,298.062,238.767,300.307,237.935z M303.791,247.534
				c2.592,0,4.232-1.568,4.232-5.119v-2.881h-3.887c-2.879,0-4.492,1.504-4.492,4.033
				C299.645,245.743,301.258,247.534,303.791,247.534z"/>
			<path fill="#272D39" d="M325.047,227.472h6.736c6.219,0,10.309,4.127,10.309,11.264c0,7.166-4.09,11.326-10.309,11.326h-6.736
				V227.472z M331.582,247.31c4.578,0,7.573-3.008,7.573-8.574c0-5.535-3.023-8.512-7.573-8.512h-3.686v17.086H331.582z"/>
			<path fill="#272D39" d="M346.357,227.472h2.851v22.59h-2.851V227.472z"/>
			<path fill="#272D39" d="M354.795,245.071c0,0,2.16,2.432,5.184,2.432c1.9,0,3.513-1.186,3.513-3.328
				c0-4.896-9.848-3.84-9.848-10.783c0-3.52,2.735-6.305,6.565-6.305c3.771,0,5.758,2.273,5.758,2.273l-1.295,2.623
				c0,0-1.872-1.951-4.463-1.951c-2.16,0-3.686,1.504-3.686,3.295c0,4.672,9.847,3.424,9.847,10.752
				c0,3.486-2.419,6.367-6.449,6.367c-4.319,0-6.739-2.977-6.739-2.977L354.795,245.071z"/>
			<path fill="#272D39" d="M370.463,227.472h11.805v2.752h-8.955v7.072h7.285v2.75h-7.285v7.264h9.444v2.752h-12.294V227.472z"/>
			<path fill="#272D39" d="M386.965,227.472h2.82l9.042,14.688c0.749,1.215,1.699,3.264,1.699,3.264h0.058
				c0,0-0.203-2.016-0.203-3.264v-14.688h2.852v22.59h-2.793l-9.069-14.654c-0.749-1.248-1.699-3.297-1.699-3.297h-0.058
				c0,0,0.201,2.018,0.201,3.297v14.654h-2.85V227.472z M393.184,221.808c1.93,0,2.39,2.176,3.628,2.176
				c0.864,0,1.122-1.15,1.122-2.08h2.017c0,2.656-0.979,4.064-2.937,4.064c-1.93,0-2.391-2.176-3.629-2.176
				c-0.863,0-1.122,1.119-1.122,2.08h-2.016C390.247,223.185,391.226,221.808,393.184,221.808z"/>
			<path fill="#272D39" d="M417.836,227.087c5.873,0,10.422,5.023,10.422,11.52c0,6.656-4.549,11.84-10.422,11.84
				c-5.875,0-10.453-5.184-10.453-11.84C407.383,232.11,411.961,227.087,417.836,227.087z M417.836,247.534
				c4.146,0,7.485-3.84,7.485-8.928c0-4.928-3.34-8.639-7.485-8.639c-4.147,0-7.516,3.711-7.516,8.639
				C410.32,243.694,413.688,247.534,417.836,247.534z"/>
		</g>
		<g>
			<line fill="#272D39" x1="472.845" y1="237.716" x2="435.02" y2="237.716"/>
			<rect x="435.02" y="236.716" fill="#272D39" width="37.825" height="2"/>
		</g>
		<g>
			<line fill="#272D39" x1="65.206" y1="237.716" x2="27.381" y2="237.716"/>
			<rect x="27.381" y="236.716" fill="#272D39" width="37.825" height="2"/>
		</g>
	</g>
</g>
</svg>
